<svg width="189" height="64" viewBox="0 0 189 64" fill="none" xmlns="http://www.w3.org/2000/svg">
<path d="M8.85156 31.2197C8.85156 22.4242 11.21 15.6452 15.9268 10.8828C20.0283 6.73568 25.2464 4.66211 31.5811 4.66211C40.0576 4.66211 46.2555 7.44206 50.1748 13.002C52.3395 16.1237 53.5016 19.2568 53.6611 22.4014H43.1338C42.4502 19.986 41.5729 18.1631 40.502 16.9326C38.5879 14.7451 35.751 13.6514 31.9912 13.6514C28.1631 13.6514 25.1439 15.2008 22.9336 18.2998C20.7233 21.376 19.6182 25.7396 19.6182 31.3906C19.6182 37.0417 20.7803 41.2799 23.1045 44.1055C25.4515 46.9082 28.4251 48.3096 32.0254 48.3096C35.7168 48.3096 38.5309 47.1019 40.4678 44.6865C41.5387 43.3877 42.4274 41.4395 43.1338 38.8418H53.5586C52.6471 44.3333 50.3115 48.7995 46.5518 52.2402C42.8148 55.681 38.0182 57.4014 32.1621 57.4014C24.916 57.4014 19.2194 55.0771 15.0723 50.4287C10.9251 45.7575 8.85156 39.3545 8.85156 31.2197Z" fill="black"/>
<path d="M52.5117 34.7969C52.5117 36.6719 52.8893 38.2734 53.6445 39.6016C54.3867 40.9167 55.4479 41.9062 56.8281 42.5703C58.2214 43.2344 59.8685 43.5664 61.7695 43.5664C64.1393 43.5664 66.2292 42.9935 68.0391 41.8477C69.849 40.6888 71.2357 39.1263 72.1992 37.1602C73.1628 35.194 73.6445 33.0065 73.6445 30.5977C73.6445 28.7096 73.2409 27.1211 72.4336 25.832C71.6393 24.556 70.526 23.6055 69.0938 22.9805C67.6615 22.3555 66.0143 22.043 64.1523 22.043C61.7956 22.043 59.7383 22.6094 57.9805 23.7422C56.2227 24.862 54.8685 26.3984 53.918 28.3516C52.9805 30.2917 52.5117 32.4401 52.5117 34.7969ZM58.0781 34.7969C58.0781 32.7005 58.5924 30.7474 59.6211 28.9375C60.6497 27.1146 62.1081 26.2031 63.9961 26.2031C65.3633 26.2031 66.3789 26.5938 67.043 27.375C67.7201 28.1693 68.0586 29.2695 68.0586 30.6758C68.0586 31.9388 67.8372 33.2409 67.3945 34.582C66.9518 35.9232 66.2747 37.056 65.3633 37.9805C64.4518 38.8919 63.3581 39.3477 62.082 39.3477C60.819 39.3477 59.8359 38.9049 59.1328 38.0195C58.4297 37.1211 58.0781 36.0469 58.0781 34.7969ZM74.4453 43L78.7031 22.5508H84.0547L83.5273 25.4414C84.4128 24.2695 85.4674 23.4036 86.6914 22.8438C87.8372 22.3099 89.1328 22.043 90.5781 22.043C92.4792 22.043 93.944 22.5052 94.9727 23.4297C96.0143 24.3411 96.5352 25.5846 96.5352 27.1602C96.5352 27.7721 96.4505 28.4232 96.2812 29.1133L93.4102 43H87.8242L90.3438 30.9883C90.474 30.4154 90.5391 29.8685 90.5391 29.3477C90.5391 28.5013 90.3307 27.8047 89.9141 27.2578C89.5104 26.7109 88.8529 26.4375 87.9414 26.4375C86.3789 26.4375 85.1159 26.9909 84.1523 28.0977C83.2018 29.2044 82.5833 30.5716 82.2969 32.1992L80.0508 43H74.4453ZM110.578 16.3203L109.27 22.5508H113.254L112.414 26.2617L108.43 26.2812C108.417 26.3464 108.215 27.3294 107.824 29.2305C107.434 31.1315 107.128 32.6224 106.906 33.7031C106.698 34.7708 106.529 35.6367 106.398 36.3008C106.268 36.9648 106.203 37.3164 106.203 37.3555C106.203 38.4232 106.835 38.957 108.098 38.957L110.109 38.8398L109.133 43.1562C108.026 43.2734 107.049 43.332 106.203 43.332C104.172 43.332 102.674 42.9479 101.711 42.1797C100.826 41.4896 100.383 40.5846 100.383 39.4648C100.383 38.8789 100.487 38.1367 100.695 37.2383L102.883 26.2812H99.25L100.051 22.5508H103.723L104.973 16.3203H110.578ZM125.793 35.1875L126.359 33.1562C125.826 33.4688 125.077 33.6966 124.113 33.8398C123.137 33.9701 122.089 34.1263 120.969 34.3086C119.862 34.4909 119.009 34.8164 118.41 35.2852C117.811 35.7539 117.512 36.4831 117.512 37.4727C117.512 38.2148 117.805 38.7943 118.391 39.2109C118.99 39.6276 119.699 39.8359 120.52 39.8359C122.082 39.8359 123.254 39.4062 124.035 38.5469C124.816 37.6745 125.402 36.5547 125.793 35.1875ZM119.758 28.8008H114.621C114.842 27.1471 115.402 25.819 116.301 24.8164C117.212 23.8138 118.345 23.1042 119.699 22.6875C121.066 22.2578 122.564 22.043 124.191 22.043C126.861 22.043 128.898 22.4401 130.305 23.2344C131.854 24.1198 132.629 25.4935 132.629 27.3555C132.629 28.0065 132.473 29.1393 132.16 30.7539L130.324 39.0352C130.129 39.8685 130.031 40.6432 130.031 41.3594C130.031 41.9844 130.096 42.5312 130.227 43H124.758V40.9883C124.081 41.7695 123.156 42.3815 121.984 42.8242C120.799 43.293 119.576 43.5273 118.312 43.5273C116.542 43.5273 115.044 43.0781 113.82 42.1797C112.596 41.2682 111.984 39.9401 111.984 38.1953C111.984 36.8932 112.29 35.7604 112.902 34.7969C113.527 33.8203 114.413 33.0326 115.559 32.4336C116.717 31.8216 118.091 31.3984 119.68 31.1641C121.333 30.9948 122.362 30.8906 122.766 30.8516C123.182 30.7995 123.697 30.7344 124.309 30.6562C124.934 30.5781 125.311 30.5195 125.441 30.4805C125.572 30.4414 125.643 30.4219 125.656 30.4219C126.268 30.2656 126.724 30.0312 127.023 29.7188C127.323 29.4062 127.473 28.9375 127.473 28.3125C127.473 27.362 127.108 26.6979 126.379 26.3203C125.65 25.9297 124.816 25.7344 123.879 25.7344C122.811 25.7344 121.9 25.9948 121.145 26.5156C120.389 27.0234 119.927 27.7852 119.758 28.8008ZM154.836 29.6016H149.309C149.309 28.4427 148.977 27.5768 148.312 27.0039C147.674 26.4701 146.73 26.2031 145.48 26.2031C144.178 26.2031 143.111 26.6523 142.277 27.5508C141.444 28.4492 140.839 29.569 140.461 30.9102C140.096 32.2383 139.914 33.5859 139.914 34.9531C139.914 36.2422 140.22 37.2969 140.832 38.1172C141.444 38.9375 142.401 39.3477 143.703 39.3477C144.862 39.3477 145.806 38.9896 146.535 38.2734C147.277 37.5573 147.831 36.6523 148.195 35.5586H153.742C153.182 37.2383 152.421 38.6771 151.457 39.875C150.493 41.0729 149.328 41.9779 147.961 42.5898C146.607 43.2279 145.07 43.5469 143.352 43.5469C141.451 43.5469 139.823 43.2344 138.469 42.6094C137.115 41.9714 136.079 41.0013 135.363 39.6992C134.66 38.3841 134.309 36.75 134.309 34.7969C134.309 32.4271 134.764 30.2721 135.676 28.332C136.587 26.3789 137.902 24.8424 139.621 23.7227C141.34 22.6029 143.371 22.043 145.715 22.043C148.397 22.043 150.572 22.6615 152.238 23.8984C153.905 25.1354 154.771 27.0365 154.836 29.6016ZM166.594 16.3203L165.285 22.5508H169.27L168.43 26.2617L164.445 26.2812C164.432 26.3464 164.23 27.3294 163.84 29.2305C163.449 31.1315 163.143 32.6224 162.922 33.7031C162.714 34.7708 162.544 35.6367 162.414 36.3008C162.284 36.9648 162.219 37.3164 162.219 37.3555C162.219 38.4232 162.85 38.957 164.113 38.957L166.125 38.8398L165.148 43.1562C164.042 43.2734 163.065 43.332 162.219 43.332C160.188 43.332 158.69 42.9479 157.727 42.1797C156.841 41.4896 156.398 40.5846 156.398 39.4648C156.398 38.8789 156.503 38.1367 156.711 37.2383L158.898 26.2812H155.266L156.066 22.5508H159.738L160.988 16.3203H166.594ZM187.453 28.5469H182.297C182.206 26.6719 181.164 25.7344 179.172 25.7344C176.854 25.7344 175.695 26.4049 175.695 27.7461C175.695 28.2148 175.884 28.599 176.262 28.8984C176.639 29.1849 177.316 29.4974 178.293 29.8359L181.066 30.6758C182.785 31.3138 184.094 32.0625 184.992 32.9219C185.891 33.7812 186.34 35.0052 186.34 36.5938C186.34 38.1953 185.884 39.5169 184.973 40.5586C184.061 41.6003 182.87 42.362 181.398 42.8438C179.94 43.3125 178.371 43.5469 176.691 43.5469C175.272 43.5469 173.911 43.3451 172.609 42.9414C171.32 42.5247 170.259 41.8346 169.426 40.8711C168.879 40.2591 168.508 39.5299 168.312 38.6836C168.208 38.1497 168.156 37.375 168.156 36.3594H173.254C173.254 36.8151 173.28 37.2122 173.332 37.5508C173.384 37.8893 173.508 38.1823 173.703 38.4297C173.898 38.6771 174.165 38.9049 174.504 39.1133C175.337 39.6471 176.294 39.9141 177.375 39.9141C178.339 39.9141 179.159 39.6927 179.836 39.25C180.513 38.7943 180.852 38.1497 180.852 37.3164C180.852 36.6784 180.689 36.2096 180.363 35.9102C180.038 35.5977 179.536 35.3307 178.859 35.1094L174.523 33.7227C173 33.2148 171.88 32.5964 171.164 31.8672C170.448 31.138 170.09 30.0312 170.09 28.5469C170.09 27.0365 170.546 25.793 171.457 24.8164C172.382 23.8398 173.54 23.1367 174.934 22.707C176.327 22.2643 177.74 22.043 179.172 22.043C181.698 22.043 183.71 22.5182 185.207 23.4688C186.704 24.4193 187.453 26.112 187.453 28.5469Z" fill="black"/>
</svg>
